<svg xmlns="http://www.w3.org/2000/svg" viewBox="0 0 387.48 371.6">
    <defs>
        <style>
            .cls-1,.cls-4{fill:none;}.cls-2{fill:#00d8ff;}.cls-3{clip-path:url(#clip-path);}.cls-4{stroke:#282828;stroke-miterlimit:10;stroke-width:5px;}.cls-5{fill:#fff;}.cls-6{fill:#282828;}
        </style>
        <clipPath id="clip-path">
            <ellipse class="cls-1" cx="193.74" cy="185.8" rx="45.36" ry="115.57" transform="rotate(-30 193.737 185.792)"/>
        </clipPath>
    </defs>
    <title>logo-conf</title>
    <g id="Layer_2" data-name="Layer 2">
        <g id="Layer_1-2" data-name="Layer 1">
            <path class="cls-2" d="M193.74 148.43c29.89 0 57.88 4.52 78.8 12.73 18 7.07 28.77 16.28 28.77 24.63s-10.76 17.56-28.77 24.63c-20.92 8.21-48.9 12.73-78.8 12.73s-57.88-4.52-78.8-12.73c-18-7.07-28.77-16.28-28.77-24.63s10.76-17.56 28.77-24.63c20.92-8.21 48.9-12.73 78.8-12.73m0-8c-63.83 0-115.57 20.31-115.57 45.36s51.74 45.36 115.57 45.36 115.57-20.31 115.57-45.36-51.74-45.36-115.57-45.36z"/>
            <ellipse class="cls-2" cx="193.74" cy="185.8" rx="115.57" ry="45.36" transform="rotate(-60 193.736 185.8)"/>
            <g class="cls-3">
                <path class="cls-4" d="M386.23 219.66L126.82 369.43M380.25 209.3L120.84 359.08M374.27 198.95L114.86 348.72M368.29 188.59L108.88 338.36M362.31 178.23L102.9 328M356.33 167.88L96.92 317.65M350.36 157.52L90.94 307.29M344.38 147.16L84.96 296.93M338.4 136.81L78.99 286.58M332.42 126.45L73.01 276.22M326.44 116.09L67.03 265.86M320.46 105.73L61.05 255.51M314.48 95.38L55.07 245.15M308.5 85.02L49.09 234.79M302.52 74.66L43.11 224.43M296.54 64.31L37.13 214.08M290.56 53.95L31.15 203.72M284.58 43.59L25.17 193.36M278.6 33.24L19.19 183.01M272.62 22.88L13.21 172.65M266.64 12.52L7.23 162.29M260.66 2.17L1.25 151.94"/>
            </g>
            <path class="cls-2" d="M193.74 148.43c29.89 0 57.88 4.52 78.8 12.73 18 7.07 28.77 16.28 28.77 24.63s-10.76 17.56-28.77 24.63c-20.92 8.21-48.9 12.73-78.8 12.73s-57.88-4.52-78.8-12.73c-18-7.07-28.77-16.28-28.77-24.63s10.76-17.56 28.77-24.63c20.92-8.21 48.9-12.73 78.8-12.73m0-8c-63.83 0-115.57 20.31-115.57 45.36s51.74 45.36 115.57 45.36 115.57-20.31 115.57-45.36-51.74-45.36-115.57-45.36z"/>
            <ellipse class="cls-2" cx="193.74" cy="185.8" rx="115.57" ry="45.36" transform="rotate(-60 193.736 185.8)"/>
            <g class="cls-3">
                <path class="cls-5" d="M125.572 367.273l259.41-149.77 2.5 4.33-259.41 149.77zM119.593 356.91l259.41-149.77 2.5 4.33-259.41 149.77zM113.614 346.55l259.41-149.77 2.5 4.33-259.41 149.77zM107.64 336.195l259.41-149.77 2.5 4.33-259.41 149.77zM101.652 325.843l259.41-149.77 2.5 4.33-259.41 149.77zM95.673 315.48l259.41-149.77 2.5 4.33-259.41 149.77zM89.694 305.12l259.41-149.77 2.5 4.33-259.41 149.77zM83.72 294.776l259.41-149.77 2.5 4.33-259.41 149.77zM77.73 284.414l259.41-149.77 2.5 4.33-259.41 149.77zM71.752 274.052l259.41-149.77 2.5 4.33-259.41 149.77zM65.78 263.698l259.408-149.77 2.5 4.33-259.41 149.77zM59.8 253.346l259.41-149.77 2.5 4.33L62.3 257.677zM53.81 242.984l259.41-149.77 2.5 4.33-259.41 149.77zM47.837 232.63l259.41-149.77 2.5 4.33-259.41 149.77zM41.858 222.27L301.268 72.5l2.5 4.33L44.357 226.6zM35.88 211.917l259.41-149.77 2.5 4.33-259.41 149.77zM29.896 201.564l259.41-149.77 2.5 4.33-259.41 149.77zM23.917 191.202l259.41-149.77 2.5 4.33-259.41 149.77zM17.938 180.84l259.41-149.77 2.5 4.33-259.41 149.77zM11.95 170.488l259.408-149.77 2.5 4.33-259.41 149.77zM5.975 160.134l259.41-149.77 2.5 4.33-259.41 149.77zM-.004 149.772L259.406.002l2.5 4.33-259.41 149.77z"/>
            </g>
            <rect class="cls-6" x="176.06" y="168.12" width="35.36" height="35.36" rx="17.68" ry="17.68" transform="rotate(-31.77 193.718 185.78)"/>
        </g>
    </g>
</svg>